<svg xmlns="http://www.w3.org/2000/svg" viewBox="0 0 48 48"><path fill="#5a67d8" d="M38 16s3-1 4.736-2.403c.465-.445.681-1.107.264-1.597-1.12-1.316-6.376-3.486-11-4l-2 4s8.972-.541 10 1c.806 1.209-2 3-2 3zM8.988 16s-3-1-4.736-2.403c-.465-.445-.681-1.107-.264-1.597 1.12-1.316 6.376-3.486 11-4l2 4s-8.972-.541-10 1c-.806 1.209 2 3 2 3zM23.522 16.06c-6.821-.154-12.382 4.996-12.544 11.488-.004.178-.005.356-.001.534 0 8.462 5.208 13.919 14.117 13.919 3.883 0 6.874-1.018 8.91-3.492V33.52c0-2.302 2.983-2.521 2.983-2.521l-12.989-.019s4.008.736 4.008 2.987c0 .998.019 5.01.019 5.01-.608.579-2.165 1.063-3.025 1.039-6.979 0-8.074-8.938-8.074-11.931s1.238-10.031 8.168-10.031c7.862.499 8.91 7.483 8.91 7.483l-.026-8.531c-1.297.329-2.742.538-4.166.05-1.839-.608-4.344-1.07-6.29-.996zM24 13l-.418-1.672a3.998 3.998 0 0 0-2.91-2.91L19 8l1.672-.418a3.998 3.998 0 0 0 2.91-2.91L24 3l.418 1.672a3.998 3.998 0 0 0 2.91 2.91L29 8l-1.672.418a3.998 3.998 0 0 0-2.91 2.91L24 13z"/></svg>